<svg width="300" height="300" viewBox="0 0 300 300" fill="none" xmlns="http://www.w3.org/2000/svg">
<path d="M61.5 29L77 89L89 112L106.5 131.5L133.5 154L157 159.5L193 142L220 112L228.5 100V77.5L230.5 50.5L218.5 40.5L202 43.5L191 60.5L189 83.5L193 96" stroke="black" stroke-linecap="round"/>
<path d="M184 100L175.5 98.5L166 100.5L158 101.5L148.5 100.5L140 99L133.5 98.5L126 100L121.5 102L127.5 104.5L132 108L136.5 113L142.5 115.5L150 116.5L157 115.5L164.5 116.5L170.5 115.5L177 111.5L184 103.5L188.5 97.5L180.5 96.5L171.5 95.5L162.5 93.5L154 93L144 94.5L135 96.5L125 97.5L118 97L127.5 91L136.5 84.5L142.5 81L147.5 82.5L153 84.5L159.5 83.5L166 82.5H171.5L174.5 84.5L179.5 89.5L187 94" stroke="black" stroke-linecap="round"/>
<path d="M189.5 102.5L194 108.5L196.5 115L193 124L186 132.5L177 139.5L167.5 132.5L157 128.5H147.5L135.5 132.5L127.5 142L121 154.5L109.5 147.5L101.5 137.5L93 128.5V142V170.5V187.5L86 199L74.5 207.5L63.5 214.5L81 221L94.5 229.5L105 243.5L119 261L138 279L157 285.5H171L186 277.5L199.5 261L209.5 239.5L219 223.5L233.5 217H237L230.5 201.5L221 173L219 150V126.5L212 137.5L204 145.5L196.5 154.5L180 170.5L170 185L161.5 206.5L158.5 232.5V261V279" stroke="black" stroke-linecap="round"/>
</svg>
