<svg width="300" height="300" viewBox="0 0 300 300" fill="none" xmlns="http://www.w3.org/2000/svg">
<path d="M249 134L255.5 143.5L268 156L267 139.5L264.5 124L259.5 110.5L255.5 102L251.5 94.5L245.5 86L240.5 85.5H238L234 86L230 87.5L226.5 85.5L223.5 84.5L219.5 85.5H214.5L210 87.5L207 86L203 84.5H199H192H185.5L182.5 86L176 84.5H170L166 83.5L160.5 85.5L157 83.5H150L155.5 82L159 79L160.5 77L163.5 74.5L166 71H170H177.5H183L188 68L190 64L196.5 63L200 65.5L204 64L208 65.5L210 61.5L214.5 59.5H220.5L210 52L196.5 44.5L179 37.5L159 33.5L143.5 32.5L126.5 33.5L110 36L97 41L85.5 46L91 49L95 53L98 58.5L98.5 64L95 72L89.5 77L85.5 79H81L74 76L69 72L65.5 65.5V59.5L53 70.5L44.5 80.5L37 92L31.5 103L30 109H33.5L37 108L43.5 112H49.5L55.5 117L59 116L64 118.5L61.5 119.5L55.5 121L50.5 120L48.5 121H44.5H41.5L39.5 123L37.5 122H35.5L30 119.5L24.5 122L22 130.5L20 156.5L24.5 186.5L31.5 179.5L37 175.5L48.5 163L59 151.5M249 134L238 139.5M249 134L247.174 143.5V155M238 139.5L226.5 116L218 108.5L210 118.5L199 131L194.5 128.5L177.5 146.5L163.5 167M238 139.5L242 146.5L247.174 155M163.5 167L155.5 158L135 138L127.5 118.5H123L116.5 108.5M163.5 167V169.5L167 173L174.25 180.25M116.5 108.5L105 117L101.5 124L90.5 136.5L84.5 134M116.5 108.5L112.5 116L111 124M84.5 134L69 154L59 151.5M84.5 134V146.5L86.5 158M59 151.5L62.5 157.5L64 164.5V174L69 183.5M181.5 187.5L174.25 180.25M258.5 175L249 158L247.174 155M174.25 180.25L188 175.5L189.159 177M196.5 186.5L189.159 177M189.159 177L196.5 174L203 177L213 183.5L223.5 187.5L232 194.5L238 196L253.5 208M108 149V140.5L109.5 131" stroke="black" stroke-linecap="round"/>
<path d="M35.5 213.5H50L64 210L81.5 200.5L98.5 195.5L114.5 202L127.25 207.75M140 213.5L127.25 207.75M127.25 207.75L140 204L150 205.5L159.5 207.75L173 210L195 217.5M185.5 220L198 217.5L208.5 212H222.5H237L257 207.75M56.5 241.5H70.5L87.5 238L104.5 241.5L129 244.5L173 249M140 258.5L163.5 252.5L185.5 241.5L198 235H216.5H238.5M86 265L98.5 262.5L123 265L151 266H173L195 258.5L218 256" stroke="black" stroke-linecap="round"/>
<path d="M103.5 153L105.5 159.5L106.5 170.5L104 189L100.5 206.5L101 216L104 224M108.5 224L109.5 212.5M110.5 208.5L109.5 196.5L108.5 188.5L107.5 181M116 175.5L118 183.5L119.5 194M121 184.5L121.5 190.5L124 199.5L126.5 205.5M125 194L125.5 198.5L129 204.5M138 182L139 189L140.5 196L143 201.5M146.5 203L143.5 197L142 192L141.5 187M139 196L137 190L136 184L135.5 176L136 169M79 158.5L76.5 166L75.5 173V181M73.5 175.5L74 167.5L76.5 158.5L80 151M82.5 140L78.5 146L75.5 152M38.5 181L36.5 189L33.5 196.5L30.5 202M41.5 181L39.5 188.5L36 197.5M43 173L42 178.5M56.5 159.5L54 169M55.5 172L54 178.5L53.5 186M52.5 174.5L51.5 184M62.5 187L63 193M64.5 194V208.5M80 174.5L80.5 185.5L81.5 194M191.5 141L192 145.5L194.5 152L195.036 154.5M194.5 166.5L196 159L195.036 154.5M196 140.5L195.5 146.5L195.036 154.5M207.5 133.5L205.5 141L203.5 148.5M226 144L227.5 153.5L233.5 166.5M205.5 188.5L210 196L215 201.5M203.5 202L198 198.5M253.5 151V154.5M258 153.5V158.5L260.5 162.5M119.5 136L121.5 145.5L126.5 148.5L129 154.5M219 116.5L221 120V124M215 122.5L213.5 132.5M223.5 196L226 197.5L231 199.5L239.5 206.5M159.5 174.5L162 181L168.5 188.5" stroke="black" stroke-width="0.5" stroke-linecap="round"/>
</svg>
