<svg width="300" height="300" viewBox="0 0 300 300" fill="none" xmlns="http://www.w3.org/2000/svg">
<path d="M60.5 154L51.5 158L42.5 165L34 173L28 181L26 189L27 197L31 203.5L38 209L48.5 213.5L59.5 216L71 217L82 217.5L88.5 217.303M60.5 154L61 147L63.5 134.5L67 124L71.5 112.5L77 104L84 94.5L92 87L100 81.5L108.5 76.5C112.167 75 119.6 71.9 120 71.5C120.4 71.1 127.5 69 131 68L147.5 66.5L161.5 67.5L175.5 70L188 75L200 82.5L208.5 89.5L215.5 96.5L221.5 103.5M60.5 154V160.5L61.5 168M221.5 103.5L230.5 102L242.5 101.5L254 103L264.5 107L271.5 112.5L274 120L273.5 129L270 137.5L259.5 151L251 159.5L238 169.5L234.667 171.5M221.5 103.5L225 108.5L228 115M61.5 168L57.5 170.5L54 175L52.5 180L53 185L55.5 189L60.5 192L68 195L70.5 195.469M61.5 168L64 176.5L66.5 185L70.5 195.469M228 115H234.5L242.5 118L245.5 122L246 128L244.5 133.5L240.5 139L236.833 143M228 115L231 122L234.667 133.5L236.833 143M88.5 217.303L98.5 217L119.5 214.5L137 211L152.5 207L172 201L191.5 193.5L207 186.5L223 178.5L234.667 171.5M88.5 217.303L93.5 223L101.5 229L110.5 233.5L119.5 237L130.5 240.5L143 242.5H155L166 241.5L175.5 239L183 236L192.5 231.5L200 226.5L206 222L214 213.5L222 203.5L227.5 194L232.5 182L234.667 171.5M236.833 143L235 145L230 150L224 154.5L216.5 159.5L209.5 164L202.5 168L195.5 171.5L186.5 176L175 181L163.5 185L151.5 188.5L140 191.5L128 194L116 196L104 197L92.5 197.5L83.5 197L76 196.5L70.5 195.469" stroke="black" stroke-linecap="round"/>
<path d="M156 114.5L162 111.5L171.5 106L181 99L187.5 92L191.5 85L194 79M109.5 93L102.5 92.5L96.5 90.5L91.5 87.5M120 91.5L127.5 89.5L135.5 87L143.5 82.5C145.833 80.8333 150.6 77.4 151 77C151.4 76.6 154.167 73.5 155.5 72L157.5 67.5M97.5 108.5L102 109.5H109.5L117.5 108.5L124.5 107L133 105M103 128C103.4 128 105.833 127.667 107 127.5L111.5 127L115.5 126M94.5 127.5L87 127L80 124.5C78 123.5 73.9 121.5 73.5 121.5C73.1 121.5 70.3333 119.833 69 119M86.5 166.5L78.5 165L69.5 161.5L60.5 156M106.5 166.5H112L116.5 166L125.5 164.5L136 162L145.5 159.5L155 156.5L164.5 153.5L174.5 149L184 144.5L192 139.5L198 135.5L203.5 132M212 124L216 119L219.5 113L222.5 105.5M125.5 145L133.5 143L146.5 139L155 136L164 132L171.5 128.5L178 125M86.5 184L93.5 184.5H101L109 183.5M190.5 159.5L196.5 157.5L204 153L213 146L219 141.5L223 137M167 213.5L171.5 212.5L180.5 209L188.5 205.5L195 202.5L201 199.5L203.5 196.5M208.5 209L214.5 205.5L220 201.5L227.5 194M198 215L190.5 218.5L180 222.5L170 226L159 229L148.5 231.5L134.5 233L121 233.5L109.5 233" stroke="black" stroke-linecap="round"/>
<path d="M252.5 181L257.5 177.5L264.5 178L269 181.5L270.5 186.5L269.5 191L266.5 195.5L261.5 197L255.5 196L251.5 192L250 187L252.5 181Z" stroke="black" stroke-linecap="round"/>
<path d="M240 211L242 209H244.5L246.5 210.5L247 213L246 215L243.5 216L241 215.5L239.5 213.5L240 211Z" stroke="black" stroke-linecap="round"/>
<path d="M74.5 242L76.5 241L79.5 242C80 242.667 81 244.1 81 244.5C81 244.9 81.1667 246.833 81 247.5L78.5 249H75L73.5 247L73 244.5L74.5 242Z" stroke="black" stroke-linecap="round"/>
<path d="M35.5 76.5C37.3333 75 41.1 72 41.5 72L48 71L54.5 73L60.5 80L61 89.5L57 97L48.5 101L39.5 99L33.5 94.5L31.5 85.5L35.5 76.5Z" stroke="black" stroke-linecap="round"/>
<path d="M217 51C218 50.6667 222.1 50 222.5 50L227 53L227.5 58L225.5 62L220.5 63.5L215.5 61L214 55.5L217 51Z" stroke="black" stroke-linecap="round"/>
</svg>
