<svg width="300" height="300" viewBox="0 0 300 300" fill="none" xmlns="http://www.w3.org/2000/svg">
<mask id="path-1-inside-1" fill="white">
<path fill-rule="evenodd" clip-rule="evenodd" d="M213.193 65.7647C215.57 63.2523 217 60.0228 217 56.5C217 48.4919 209.613 42 200.5 42C198.927 42 197.406 42.1933 195.965 42.5544C195.411 34.987 188.251 29 179.5 29C176.637 29 173.943 29.641 171.596 30.7686C168.666 28.4272 164.773 27 160.5 27C158.927 27 157.406 27.1933 155.965 27.5544C155.411 19.987 148.251 14 139.5 14C133.654 14 128.518 16.672 125.587 20.7021C123.984 20.2463 122.275 20 120.5 20C116.877 20 113.527 21.0261 110.805 22.7657C109.14 22.2693 107.356 22 105.5 22C99.6537 22 94.5176 24.672 91.5867 28.7021C89.9845 28.2463 88.275 28 86.5 28C77.3873 28 70 34.4919 70 42.5C70 42.6754 70.0035 42.8501 70.0106 43.024C69.4918 43.5516 69.0157 44.1123 68.5867 44.7021C66.9845 44.2463 65.275 44 63.5 44C54.3873 44 47 50.4919 47 58.5C47 60.7208 47.5681 62.825 48.5836 64.7064C46.948 66.9572 46 69.6313 46 72.5C46 74.418 46.4237 76.249 47.1935 77.9246C45.1859 80.3263 44 83.2915 44 86.5C44 88.7208 44.5681 90.825 45.5836 92.7064C43.948 94.9572 43 97.6313 43 100.5C43 108.508 50.3873 115 59.5 115C60.2377 115 60.9641 114.957 61.6761 114.875C64.3608 119.687 69.9902 123 76.5 123C79.3422 123 82.0166 122.368 84.3514 121.256C86.8861 126.401 92.7148 130 99.5 130C100.238 130 100.964 129.957 101.676 129.875C104.361 134.687 109.99 138 116.5 138C119.609 138 122.517 137.244 125 135.93C126.426 136.685 127.993 137.256 129.658 137.605C132.682 140.895 137.312 143 142.5 143C145.342 143 148.017 142.368 150.351 141.256C152.886 146.401 158.715 150 165.5 150C166.238 150 166.964 149.957 167.676 149.875C170.361 154.687 175.99 158 182.5 158C185.609 158 188.517 157.244 191 155.93C193.483 157.244 196.391 158 199.5 158C208.613 158 216 151.508 216 143.5C216 143.33 215.997 143.161 215.99 142.993C216.159 142.998 216.329 143 216.5 143C219.609 143 222.517 142.244 225 140.93C227.483 142.244 230.391 143 233.5 143C242.613 143 250 136.508 250 128.5C250 127.493 249.883 126.511 249.661 125.562C254.086 122.961 257 118.529 257 113.5C257 109.977 255.57 106.748 253.193 104.235C257.318 101.599 260 97.325 260 92.5C260 84.4919 252.613 78 243.5 78C241.927 78 240.406 78.1933 238.965 78.5544C238.411 70.987 231.251 65 222.5 65C219.637 65 216.943 65.641 214.596 66.7686C214.15 66.4122 213.682 66.0769 213.193 65.7647Z"/>
</mask>
<path d="M213.193 65.7647L212.467 65.0774L211.636 65.956L212.655 66.6073L213.193 65.7647ZM195.965 42.5544L194.968 42.6275L195.055 43.8135L196.209 43.5244L195.965 42.5544ZM171.596 30.7686L170.972 31.5498L171.463 31.9421L172.029 31.67L171.596 30.7686ZM155.965 27.5544L154.968 27.6275L155.055 28.8135L156.209 28.5244L155.965 27.5544ZM125.587 20.7021L125.313 21.664L125.985 21.855L126.395 21.2903L125.587 20.7021ZM110.805 22.7657L110.519 23.724L110.958 23.8548L111.344 23.6083L110.805 22.7657ZM91.5867 28.7021L91.3131 29.664L91.9847 29.855L92.3954 29.2903L91.5867 28.7021ZM70.0106 43.024L70.7236 43.7252L71.0273 43.4164L71.0098 42.9836L70.0106 43.024ZM68.5867 44.7021L68.3131 45.664L68.9847 45.855L69.3954 45.2903L68.5867 44.7021ZM48.5836 64.7064L49.3925 65.2943L49.7625 64.7852L49.4636 64.2314L48.5836 64.7064ZM47.1935 77.9246L47.9607 78.566L48.3659 78.0813L48.1022 77.5072L47.1935 77.9246ZM45.5836 92.7064L46.3925 93.2943L46.7625 92.7852L46.4636 92.2314L45.5836 92.7064ZM61.6761 114.875L62.5494 114.388L62.2242 113.805L61.5611 113.882L61.6761 114.875ZM84.3514 121.256L85.2484 120.814L84.8122 119.929L83.9213 120.354L84.3514 121.256ZM101.676 129.875L102.549 129.388L102.224 128.805L101.561 128.882L101.676 129.875ZM125 135.93L125.468 135.047L125 134.799L124.532 135.047L125 135.93ZM129.658 137.605L130.394 136.928L130.177 136.692L129.863 136.626L129.658 137.605ZM150.351 141.256L151.248 140.814L150.812 139.929L149.921 140.354L150.351 141.256ZM167.676 149.875L168.549 149.388L168.224 148.805L167.561 148.882L167.676 149.875ZM191 155.93L191.468 155.047L191 154.799L190.532 155.047L191 155.93ZM215.99 142.993L216.017 141.994L214.949 141.965L214.991 143.032L215.99 142.993ZM225 140.93L225.468 140.047L225 139.799L224.532 140.047L225 140.93ZM249.661 125.562L249.154 124.699L248.519 125.073L248.687 125.79L249.661 125.562ZM253.193 104.235L252.655 103.393L251.636 104.044L252.467 104.923L253.193 104.235ZM238.965 78.5544L237.968 78.6275L238.055 79.8136L239.209 79.5244L238.965 78.5544ZM214.596 66.7686L213.972 67.5499L214.463 67.9421L215.029 67.67L214.596 66.7686ZM213.92 66.452C216.454 63.773 218 60.3037 218 56.5H216C216 59.742 214.686 62.7315 212.467 65.0774L213.92 66.452ZM218 56.5C218 47.8221 210.04 41 200.5 41V43C209.186 43 216 49.1616 216 56.5H218ZM200.5 41C198.845 41 197.243 41.2034 195.722 41.5844L196.209 43.5244C197.57 43.1832 199.009 43 200.5 43V41ZM196.963 42.4814C196.363 34.2899 188.667 28 179.5 28V30C187.836 30 194.46 35.6842 194.968 42.6275L196.963 42.4814ZM179.5 28C176.487 28 173.646 28.6745 171.163 29.8672L172.029 31.67C174.241 30.6075 176.786 30 179.5 30V28ZM172.221 29.9874C169.109 27.5013 164.995 26 160.5 26V28C164.551 28 168.223 29.353 170.972 31.5498L172.221 29.9874ZM160.5 26C158.845 26 157.243 26.2034 155.722 26.5844L156.209 28.5244C157.57 28.1832 159.009 28 160.5 28V26ZM156.963 27.4814C156.363 19.2899 148.667 13 139.5 13V15C147.836 15 154.46 20.6842 154.968 27.6275L156.963 27.4814ZM139.5 13C133.355 13 127.909 15.8087 124.778 20.114L126.395 21.2903C129.126 17.5353 133.953 15 139.5 15V13ZM125.86 19.7403C124.169 19.2592 122.368 19 120.5 19V21C122.182 21 123.8 21.2334 125.313 21.664L125.86 19.7403ZM120.5 19C116.688 19 113.151 20.0797 110.267 21.9231L111.344 23.6083C113.903 21.9726 117.066 21 120.5 21V19ZM111.091 21.8074C109.333 21.2833 107.453 21 105.5 21V23C107.259 23 108.947 23.2552 110.519 23.724L111.091 21.8074ZM105.5 21C99.3546 21 93.9089 23.8087 90.778 28.114L92.3954 29.2903C95.1263 25.5353 99.9529 23 105.5 23V21ZM91.8603 27.7403C90.1692 27.2592 88.3676 27 86.5 27V29C88.1823 29 89.7998 29.2334 91.3131 29.664L91.8603 27.7403ZM86.5 27C76.9603 27 69 33.8221 69 42.5H71C71 35.1616 77.8143 29 86.5 29V27ZM69 42.5C69 42.6889 69.0038 42.8771 69.0114 43.0644L71.0098 42.9836C71.0033 42.8232 71 42.662 71 42.5H69ZM69.2976 42.3229C68.745 42.8849 68.2366 43.4833 67.778 44.114L69.3954 45.2903C69.7947 44.7413 70.2387 44.2183 70.7236 43.7252L69.2976 42.3229ZM68.8603 43.7403C67.1692 43.2592 65.3676 43 63.5 43V45C65.1823 45 66.7998 45.2334 68.3131 45.664L68.8603 43.7403ZM63.5 43C53.9603 43 46 49.8221 46 58.5H48C48 51.1616 54.8143 45 63.5 45V43ZM46 58.5C46 60.8946 46.6132 63.1612 47.7036 65.1814L49.4636 64.2314C48.523 62.4887 48 60.547 48 58.5H46ZM47.7746 64.1185C46.0242 66.5273 45 69.4047 45 72.5H47C47 69.8579 47.8717 67.3871 49.3925 65.2943L47.7746 64.1185ZM45 72.5C45 74.5675 45.4572 76.5405 46.2847 78.342L48.1022 77.5072C47.3903 75.9575 47 74.2685 47 72.5H45ZM46.4262 77.2833C44.2818 79.8487 43 83.0368 43 86.5H45C45 83.5462 46.09 80.804 47.9607 78.566L46.4262 77.2833ZM43 86.5C43 88.8946 43.6132 91.1612 44.7036 93.1814L46.4636 92.2314C45.523 90.4887 45 88.547 45 86.5H43ZM44.7746 92.1185C43.0242 94.5273 42 97.4047 42 100.5H44C44 97.8579 44.8717 95.3871 46.3925 93.2943L44.7746 92.1185ZM42 100.5C42 109.178 49.9603 116 59.5 116V114C50.8143 114 44 107.838 44 100.5H42ZM59.5 116C60.2761 116 61.0409 115.955 61.7911 115.868L61.5611 113.882C60.8872 113.96 60.1992 114 59.5 114V116ZM60.8028 115.362C63.6797 120.519 69.6608 124 76.5 124V122C70.3195 122 65.0419 118.855 62.5494 114.388L60.8028 115.362ZM76.5 124C79.4906 124 82.3119 123.335 84.7814 122.159L83.9213 120.354C81.7213 121.401 79.1939 122 76.5 122V124ZM83.4543 121.698C86.1742 127.218 92.3734 131 99.5 131V129C93.0561 129 87.598 125.583 85.2484 120.814L83.4543 121.698ZM99.5 131C100.276 131 101.041 130.955 101.791 130.868L101.561 128.882C100.887 128.96 100.199 129 99.5 129V131ZM100.803 130.362C103.68 135.519 109.661 139 116.5 139V137C110.32 137 105.042 133.855 102.549 129.388L100.803 130.362ZM116.5 139C119.771 139 122.84 138.205 125.468 136.814L124.532 135.047C122.195 136.284 119.447 137 116.5 137V139ZM124.532 136.814C126.042 137.613 127.697 138.216 129.452 138.583L129.863 136.626C128.289 136.296 126.811 135.757 125.468 135.047L124.532 136.814ZM128.921 138.281C132.144 141.787 137.044 144 142.5 144V142C137.579 142 133.221 140.004 130.394 136.928L128.921 138.281ZM142.5 144C145.491 144 148.312 143.335 150.781 142.159L149.921 140.354C147.721 141.401 145.194 142 142.5 142V144ZM149.454 141.698C152.174 147.218 158.373 151 165.5 151V149C159.056 149 153.598 145.583 151.248 140.814L149.454 141.698ZM165.5 151C166.276 151 167.041 150.955 167.791 150.868L167.561 148.882C166.887 148.96 166.199 149 165.5 149V151ZM166.803 150.362C169.68 155.519 175.661 159 182.5 159V157C176.32 157 171.042 153.855 168.549 149.388L166.803 150.362ZM182.5 159C185.771 159 188.84 158.205 191.468 156.814L190.532 155.047C188.195 156.284 185.447 157 182.5 157V159ZM190.532 156.814C193.16 158.205 196.229 159 199.5 159V157C196.553 157 193.805 156.284 191.468 155.047L190.532 156.814ZM199.5 159C209.04 159 217 152.178 217 143.5H215C215 150.838 208.186 157 199.5 157V159ZM217 143.5C217 143.317 216.996 143.135 216.989 142.954L214.991 143.032C214.997 143.187 215 143.343 215 143.5H217ZM215.963 143.993C216.142 143.998 216.321 144 216.5 144V142C216.338 142 216.177 141.998 216.017 141.994L215.963 143.993ZM216.5 144C219.771 144 222.84 143.205 225.468 141.814L224.532 140.047C222.195 141.284 219.447 142 216.5 142V144ZM224.532 141.814C227.16 143.205 230.229 144 233.5 144V142C230.553 142 227.805 141.284 225.468 140.047L224.532 141.814ZM233.5 144C243.04 144 251 137.178 251 128.5H249C249 135.838 242.186 142 233.5 142V144ZM251 128.5C251 127.416 250.874 126.356 250.635 125.334L248.687 125.79C248.892 126.665 249 127.571 249 128.5H251ZM250.168 126.424C254.849 123.673 258 118.938 258 113.5H256C256 118.121 253.324 122.249 249.154 124.699L250.168 126.424ZM258 113.5C258 109.696 256.454 106.227 253.92 103.548L252.467 104.923C254.686 107.269 256 110.258 256 113.5H258ZM253.732 105.078C258.1 102.287 261 97.7161 261 92.5H259C259 96.9338 256.537 100.912 252.655 103.393L253.732 105.078ZM261 92.5C261 83.8221 253.04 77 243.5 77V79C252.186 79 259 85.1616 259 92.5H261ZM243.5 77C241.845 77 240.243 77.2034 238.722 77.5844L239.209 79.5244C240.57 79.1832 242.009 79 243.5 79V77ZM239.963 78.4814C239.363 70.2899 231.667 64 222.5 64V66C230.836 66 237.46 71.6842 237.968 78.6275L239.963 78.4814ZM222.5 64C219.487 64 216.646 64.6745 214.163 65.8672L215.029 67.67C217.241 66.6075 219.786 66 222.5 66V64ZM215.221 65.9874C214.747 65.6087 214.25 65.253 213.732 64.922L212.655 66.6073C213.114 66.9008 213.554 67.2156 213.972 67.5499L215.221 65.9874Z" fill="black" mask="url(#path-1-inside-1)"/>
<path d="M82 250.5C101.833 244.667 141.9 223.9 143.5 187.5C145.1 151.1 137.5 141 133.5 140.5M225.5 256C207.167 255 170.8 247.8 172 227C173.2 206.2 179.833 179.333 183 168.5C185.167 164.167 190.1 155.7 192.5 156.5M158.5 165C157 180.167 153.4 211.2 151 214M163.5 239.5C163.5 231.5 162.5 183 168.5 168.5M145 207.5C132 226.5 130.5 231 124.5 236.5" stroke="black" stroke-linecap="round"/>
<path d="M99.5 243.5C91.5 235 76.4 235.611 66 248.811M39.5 255C42.8333 251.167 52.3 244.4 63.5 248C74.7 251.6 75.1667 252.167 74 252M178 240.5C183 237.73 194.7 233.851 201.5 240.5C203.776 242.726 205.481 244.743 206.742 246.5M210 253.5C210 252.46 209.248 249.993 206.742 246.5M206.742 246.5C218.328 243.333 241.5 239.2 241.5 248C241.5 256.8 225.833 255.167 224.5 256" stroke="black" stroke-width="0.5" stroke-linecap="round"/>
</svg>
